<svg xmlns="http://www.w3.org/2000/svg" style="display:none">
  <symbol id="icon-moon" viewBox="0 0 24 24" fill="none" stroke="currentColor" stroke-width="1.8" stroke-linecap="round" stroke-linejoin="round">
    <path d="M20.3 14.8A8.5 8.5 0 1 1 9.2 3.7 7.2 7.2 0 0 0 20.3 14.8z"/>
  </symbol>
  <symbol id="icon-sun" viewBox="0 0 24 24" fill="none" stroke="currentColor" stroke-width="1.8" stroke-linecap="round" stroke-linejoin="round">
    <circle cx="12" cy="12" r="4.2"/>
    <path d="M12 2.5v2.2M12 19.3v2.2M4.7 4.7l1.6 1.6M17.7 17.7l1.6 1.6M2.5 12h2.2M19.3 12h2.2M4.7 19.3l1.6-1.6M17.7 6.3l1.6-1.6"/>
  </symbol>
  <symbol id="icon-spark" viewBox="0 0 24 24" fill="none" stroke="currentColor" stroke-width="1.8" stroke-linecap="round" stroke-linejoin="round">
    <path d="M12 3.2l1.8 4.5L18.3 9l-4.5 1.3L12 14.8l-1.8-4.5L5.7 9l4.5-1.3L12 3.2z"/>
    <path d="M18.7 14.2l.9 2.3 2.3.9-2.3.9-.9 2.3-.9-2.3-2.3-.9 2.3-.9.9-2.3z"/>
    <path d="M5.3 14.2l.8 2 .2.1 2 .8-2 .8-.1.2-.8 2-.8-2-.2-.1-2-.8 2-.8.1-.2.8-2z"/>
  </symbol>
  <symbol id="icon-calendar" viewBox="0 0 24 24" fill="none" stroke="currentColor" stroke-width="1.8" stroke-linecap="round" stroke-linejoin="round">
    <rect x="3" y="5" width="18" height="16" rx="3"/>
    <path d="M16 3.5v3M8 3.5v3M3 9.5h18"/>
    <path d="M8 13h3M13 13h3M8 17h3"/>
  </symbol>
  <symbol id="icon-clock" viewBox="0 0 24 24" fill="none" stroke="currentColor" stroke-width="1.8" stroke-linecap="round" stroke-linejoin="round">
    <circle cx="12" cy="12" r="8.5"/>
    <path d="M12 7.8v4.7l3.2 2"/>
  </symbol>
  <symbol id="icon-subtask" viewBox="0 0 24 24" fill="none" stroke="currentColor" stroke-width="1.8" stroke-linecap="round" stroke-linejoin="round">
    <rect x="4" y="4" width="6" height="6" rx="1.4"/>
    <rect x="14" y="4" width="6" height="6" rx="1.4"/>
    <rect x="4" y="14" width="6" height="6" rx="1.4"/>
    <path d="M14 17h6M17 14v6"/>
  </symbol>
  <symbol id="icon-edit" viewBox="0 0 24 24" fill="none" stroke="currentColor" stroke-width="1.8" stroke-linecap="round" stroke-linejoin="round">
    <path d="M4 20l4.2-.8L19 8.4a1.8 1.8 0 0 0 0-2.6l-.8-.8a1.8 1.8 0 0 0-2.6 0L4.8 15.8 4 20z"/>
    <path d="M13.8 6.2l4 4"/>
  </symbol>
  <symbol id="icon-delete" viewBox="0 0 24 24" fill="none" stroke="currentColor" stroke-width="1.8" stroke-linecap="round" stroke-linejoin="round">
    <path d="M4.5 7h15"/>
    <path d="M9.2 3.8h5.6L16 7H8l1.2-3.2z"/>
    <rect x="6.5" y="7" width="11" height="13" rx="1.8"/>
    <path d="M10 10.5v6M14 10.5v6"/>
  </symbol>
  <symbol id="icon-empty" viewBox="0 0 24 24" fill="none" stroke="currentColor" stroke-width="1.8" stroke-linecap="round" stroke-linejoin="round">
    <path d="M4.5 11.5l7.5-8 7.5 8v7a2 2 0 0 1-2 2h-11a2 2 0 0 1-2-2v-7z"/>
    <path d="M9 13.5h6M9 17h4"/>
  </symbol>
</svg>
